<svg xmlns="http://www.w3.org/2000/svg" viewBox="0 0 512 512" role="img" aria-label="Assembly Crosshair">
  <rect x="0" y="0" width="512" height="512" rx="120" fill="#12121a"/>
  <g fill="none" stroke="#f4f4f8" stroke-width="40" stroke-linecap="butt">
    <path d="M 139 135 A 168 168 0 0 1 319 100"/>
    <path d="M 419 215 A 168 168 0 0 1 359 388"/>
    <path d="M 210 417 A 168 168 0 0 1 90 279"/>
  </g>
  <g fill="#f4f4f8">
    <polygon points="351,143 229,114 301,28"/>
    <polygon points="307,395 393,304 431,409"/>
    <polygon points="110,230 146,350 36,331"/>
  </g>
  <g fill="none" stroke="#f4f4f8" stroke-width="32" stroke-linecap="round">
    <line x1="256" y1="40" x2="256" y2="100"/>
    <line x1="256" y1="412" x2="256" y2="472"/>
    <line x1="40" y1="256" x2="100" y2="256"/>
    <line x1="412" y1="256" x2="472" y2="256"/>
    <circle cx="256" cy="256" r="14" fill="#f4f4f8" stroke="none"/>
  </g>
</svg>
